<svg width="55" height="55" viewBox="0 0 55 55" fill="none" xmlns="http://www.w3.org/2000/svg">
<circle cx="27.5" cy="27.5" r="27.5" fill="#4F4F4F"/>
<path d="M40.1038 35.5208C40.1038 36.1286 39.8624 36.7115 39.4326 37.1413C39.0029 37.5711 38.42 37.8125 37.8122 37.8125H17.1872C16.5794 37.8125 15.9965 37.5711 15.5667 37.1413C15.137 36.7115 14.8955 36.1286 14.8955 35.5208V22.9167C14.8955 22.3089 15.137 21.726 15.5667 21.2962C15.9965 20.8664 16.5794 20.625 17.1872 20.625H21.7705L24.0622 17.1875H30.9372L33.2288 20.625H37.8122C38.42 20.625 39.0029 20.8664 39.4326 21.2962C39.8624 21.726 40.1038 22.3089 40.1038 22.9167V35.5208Z" stroke="white" stroke-width="1.5" stroke-linecap="round" stroke-linejoin="round"/>
<path d="M27.5003 33.2292C30.0316 33.2292 32.0837 31.1771 32.0837 28.6458C32.0837 26.1145 30.0316 24.0625 27.5003 24.0625C24.969 24.0625 22.917 26.1145 22.917 28.6458C22.917 31.1771 24.969 33.2292 27.5003 33.2292Z" stroke="white" stroke-width="1.5" stroke-linecap="round" stroke-linejoin="round"/>
</svg>
