<svg width="250" height="44" viewBox="0 0 250 44" fill="none" xmlns="http://www.w3.org/2000/svg">
<path d="M4.61523 0.34375H12.0566L23.0137 31.6621L33.9707 0.34375H41.4121L26.002 43H20.0254L4.61523 0.34375ZM0.601562 0.34375H8.01367L9.36133 30.8711V43H0.601562V0.34375ZM38.0137 0.34375H45.4551V43H36.666V30.8711L38.0137 0.34375ZM71.0312 7.63867L59.4297 43H50.084L65.9336 0.34375H71.8809L71.0312 7.63867ZM80.6699 43L69.0391 7.63867L68.1016 0.34375H74.1074L90.0449 43H80.6699ZM80.1426 27.1211V34.0059H57.6133V27.1211H80.1426ZM102.789 0.34375V43H94V0.34375H102.789ZM128.336 0.34375L111.432 21.4082L101.676 31.8965L100.094 23.5762L106.686 14.5527L117.555 0.34375H128.336ZM118.346 43L105.777 23.2832L112.281 17.834L128.746 43H118.346ZM160.768 36.1445V43H138.062V36.1445H160.768ZM140.934 0.34375V43H132.145V0.34375H140.934ZM157.809 17.7168V24.3965H138.062V17.7168H157.809ZM160.738 0.34375V7.22852H138.062V0.34375H160.738ZM165.689 38.9277C165.689 37.6777 166.119 36.6328 166.979 35.793C167.857 34.9531 169.02 34.5332 170.465 34.5332C171.91 34.5332 173.062 34.9531 173.922 35.793C174.801 36.6328 175.24 37.6777 175.24 38.9277C175.24 40.1777 174.801 41.2227 173.922 42.0625C173.062 42.9023 171.91 43.3223 170.465 43.3223C169.02 43.3223 167.857 42.9023 166.979 42.0625C166.119 41.2227 165.689 40.1777 165.689 38.9277ZM165.689 14.7578C165.689 13.5078 166.119 12.4629 166.979 11.623C167.857 10.7832 169.02 10.3633 170.465 10.3633C171.91 10.3633 173.062 10.7832 173.922 11.623C174.801 12.4629 175.24 13.5078 175.24 14.7578C175.24 16.0078 174.801 17.0527 173.922 17.8926C173.062 18.7324 171.91 19.1523 170.465 19.1523C169.02 19.1523 167.857 18.7324 166.979 17.8926C166.119 17.0527 165.689 16.0078 165.689 14.7578ZM182.828 0.34375H198.736C201.998 0.34375 204.801 0.832031 207.145 1.80859C209.508 2.78516 211.324 4.23047 212.594 6.14453C213.863 8.05859 214.498 10.4121 214.498 13.2051C214.498 15.4902 214.107 17.4531 213.326 19.0938C212.564 20.7148 211.48 22.0723 210.074 23.166C208.688 24.2402 207.057 25.0996 205.182 25.7441L202.398 27.209H188.57L188.512 20.3535H198.795C200.338 20.3535 201.617 20.0801 202.633 19.5332C203.648 18.9863 204.41 18.2246 204.918 17.248C205.445 16.2715 205.709 15.1387 205.709 13.8496C205.709 12.4824 205.455 11.3008 204.947 10.3047C204.439 9.30859 203.668 8.54688 202.633 8.01953C201.598 7.49219 200.299 7.22852 198.736 7.22852H191.617V43H182.828V0.34375ZM206.676 43L196.949 23.9863L206.236 23.9277L216.08 42.5898V43H206.676ZM249.889 36.1445V43H227.184V36.1445H249.889ZM230.055 0.34375V43H221.266V0.34375H230.055ZM246.93 17.7168V24.3965H227.184V17.7168H246.93ZM249.859 0.34375V7.22852H227.184V0.34375H249.859Z" fill="white"/>
</svg>
