<svg width="20" height="20" viewBox="0 0 20 20" fill="none" xmlns="http://www.w3.org/2000/svg">
<path d="M10.0003 10.8333C10.4606 10.8333 10.8337 10.4602 10.8337 9.99996C10.8337 9.53972 10.4606 9.16663 10.0003 9.16663C9.54009 9.16663 9.16699 9.53972 9.16699 9.99996C9.16699 10.4602 9.54009 10.8333 10.0003 10.8333Z" stroke="#828282" stroke-width="2" stroke-linecap="round" stroke-linejoin="round"/>
<path d="M15.8333 10.8333C16.2936 10.8333 16.6667 10.4602 16.6667 9.99996C16.6667 9.53972 16.2936 9.16663 15.8333 9.16663C15.3731 9.16663 15 9.53972 15 9.99996C15 10.4602 15.3731 10.8333 15.8333 10.8333Z" stroke="#828282" stroke-width="2" stroke-linecap="round" stroke-linejoin="round"/>
<path d="M4.16634 10.8333C4.62658 10.8333 4.99967 10.4602 4.99967 9.99996C4.99967 9.53972 4.62658 9.16663 4.16634 9.16663C3.7061 9.16663 3.33301 9.53972 3.33301 9.99996C3.33301 10.4602 3.7061 10.8333 4.16634 10.8333Z" stroke="#828282" stroke-width="2" stroke-linecap="round" stroke-linejoin="round"/>
</svg>
