<svg width="1200" height="630" viewBox="0 0 1200 630" fill="none" xmlns="http://www.w3.org/2000/svg">
<rect width="1200" height="630" fill="#2E6FF2"/>
<path d="M286.5 303.565H303.446L336.3 354.411L369.154 303.565H386.1V394.435H364.819V344.591L342.724 379.489H329.865L307.782 344.591V394.435H286.5V303.565Z" fill="white"/>
<path d="M461.269 376.819H424.328L417.667 394.435H395.685L432.626 303.565H454.721L491.661 394.435H467.93L461.269 376.819ZM454.721 359.202L442.798 327.534L430.876 359.202H454.721Z" fill="white"/>
<path d="M535.5 359.762L522.528 374.03V394.435H501.247V303.565H522.528V346.378L560.632 303.565H586.7L549.297 344.709L588.699 394.435H562.167L535.512 359.762H535.5Z" fill="white"/>
<path d="M597.81 303.565H668.654V321.181H619.091V339.691H664.567V357.307H619.091V376.819H669.716V394.435H597.821V303.565H597.81Z" fill="white"/>
<path d="M722.722 326.867C722.722 333.22 717.811 338.011 711.15 338.011C704.489 338.011 699.465 333.22 699.465 326.867C699.465 320.514 704.376 315.722 711.15 315.722C717.924 315.722 722.722 320.514 722.722 326.867ZM722.722 371.133C722.722 377.486 717.811 382.278 711.15 382.278C704.489 382.278 699.465 377.486 699.465 371.133C699.465 364.78 704.376 359.989 711.15 359.989C717.924 359.989 722.722 364.78 722.722 371.133Z" fill="white"/>
<path d="M807.114 394.435L788.644 365.782H771.698V394.435H750.416V303.565H788.757C812.951 303.565 827.098 315.83 827.098 334.673C827.098 347.164 820.9 356.747 809.677 361.765L831.772 394.435H807.103H807.114ZM771.698 347.832H787.831C799.053 347.832 805.839 343.255 805.839 334.673C805.839 326.091 799.053 321.515 787.831 321.515H771.698V347.832Z" fill="white"/>
<path d="M841.605 303.565H912.45V321.181H862.887V339.691H908.363V357.307H862.887V376.819H913.5V394.435H841.605V303.565Z" fill="white"/>
<path d="M350.406 220.656V226.5H354.469V228.969H350.406V234.812H347.438V220.656H350.406ZM328.844 227.875C328.812 224.172 331.953 221.641 336.188 221.625C340.438 221.641 343.531 224.172 343.531 227.875C343.531 231.547 340.438 234.125 336.188 234.125C331.953 234.125 328.812 231.547 328.844 227.875ZM331.719 227.875C331.703 230.156 333.609 231.75 336.188 231.75C338.766 231.75 340.656 230.156 340.656 227.875C340.656 225.594 338.766 224.047 336.188 224.062C333.609 224.047 331.703 225.594 331.719 227.875ZM332.312 238.406V236.094H350.406V243.188H335.281V245.938H351.375V248.312H332.375V240.969H347.469V238.406H332.312ZM363.562 222.75C367.75 222.766 370.734 226.578 370.75 232.562C370.734 238.609 367.75 242.422 363.562 242.406C359.375 242.422 356.391 238.609 356.406 232.562C356.391 226.578 359.375 222.766 363.562 222.75ZM359.25 232.562C359.234 237.016 361.016 239.75 363.562 239.75C366.156 239.75 367.906 237.016 367.906 232.562C367.906 228.172 366.156 225.422 363.562 225.406C361.016 225.422 359.234 228.172 359.25 232.562ZM374.906 248.656V220.656H377.875V231.625H382.375V234.125H377.875V248.656H374.906ZM393.812 227.781C393.812 232.906 396.688 238.016 400.969 239.938L399.156 242.312C395.984 240.719 393.578 237.562 392.344 233.734C391.109 237.766 388.672 241.172 385.438 242.844L383.562 240.438C387.906 238.359 390.797 232.969 390.812 227.781V223H393.812V227.781ZM397.875 232.375V229.969H404.125V220.656H407.062V248.719H404.125V232.375H397.875ZM428.938 224.875C428.906 228.094 431.516 231.125 435.812 232.344L434.406 234.656C431.172 233.734 428.766 231.734 427.5 229.188C426.266 232.078 423.75 234.312 420.312 235.344L418.875 233.031C423.266 231.703 425.922 228.438 425.938 224.906V224.531H419.812V222.156H434.969V224.531H428.938V224.875ZM423.094 238.594V236.281H441.188V243.25H426.062V246.062H442.156V248.375H423.156V241.094H438.25V238.594H423.094ZM438.219 235.062V220.656H441.188V226.562H445.25V229H441.188V235.062H438.219ZM477.188 220.656V228H480.719V230.5H477.188V237.406H474.219V220.656H477.188ZM455.594 235.469V222.875H462.688V225.281H458.406V233C459.828 232.953 461.391 232.812 463.094 232.406L463.375 234.906C460.859 235.438 458.797 235.453 456.875 235.469H455.594ZM458.312 241.031V238.656H477.188V248.688H474.219V241.031H458.312ZM464.281 235.469V222.875H471.75V225.281H467.125V233.016C469.25 232.969 470.781 232.828 472.594 232.406L472.906 234.875C470.547 235.391 468.75 235.453 465.719 235.469H464.281ZM512.125 220.656V226.562H516.188V229H512.125V234.938H509.156V220.656H512.125ZM490.094 232.219C493.234 230.203 495.016 228.109 495.5 224.562H490.875V222.125H498.344C498.359 227.672 496.391 231.062 492.062 234.094L490.094 232.219ZM493.906 238.5V236.156H512.125V243.219H496.906V245.938H513.188V248.312H493.969V241H509.219V238.5H493.906ZM498.094 233.406C501.5 230.969 503.094 228.375 503.469 224.562H499.469V222.125H506.344C506.328 227.766 504.703 231.766 500.188 235.156L498.094 233.406ZM543.375 232.031V234.406H517.781V232.031H525.281C526.203 228.594 526.391 226.062 526.453 224.25H520.156V221.812H529.375V222.906C529.359 224.609 529.359 227.719 528.25 232.031H536.391C537.188 228.609 537.328 226.094 537.359 224.25H531.188V221.812H540.281V223.188C540.25 225.078 540.25 228 539.375 232.031H543.375ZM520.906 248.188V238.031H540.188V248.188H520.906ZM523.812 245.812H537.25V240.406H523.812V245.812ZM567.25 220.656V232H571.75V234.469H567.25V248.656H564.312V220.656H567.25ZM545.281 227.469V225.031H552.188V221.031H555.156V225.031H561.875V227.469H545.281ZM546.719 236.031C546.719 232.219 549.656 229.531 553.688 229.531C557.703 229.531 560.641 232.219 560.656 236.031C560.641 239.875 557.703 242.547 553.688 242.562C549.656 242.547 546.719 239.875 546.719 236.031ZM549.562 236.031C549.547 238.469 551.297 240.094 553.688 240.062C556.062 240.094 557.797 238.469 557.812 236.031C557.797 233.641 556.062 231.984 553.688 231.969C551.297 231.984 549.547 233.641 549.562 236.031ZM597.156 220.656V248.656H594.344V220.656H597.156ZM573 240.562C578.938 237.031 581.781 232.328 582.297 226.562H574.312V224.125H585.25C585.234 226.859 584.859 229.469 584 231.906H588.438V221.375H591.25V247.281H588.438V234.281H582.969C581.312 237.531 578.641 240.375 574.688 242.688L573 240.562ZM622.75 223.125V236.188H609.656V223.125H622.75ZM612.562 233.844H619.844V225.531H612.562V233.844ZM612.812 248.062V239.188H615.781V245.656H631.75V248.062H612.812ZM627.594 241.156V220.625H630.562V229H634.625V231.5H630.562V241.156H627.594ZM658.906 233.938V236.375H639.406V223.156H658.656V225.594H642.344V233.938H658.906ZM636.219 244.969V242.5H661.844V244.969H636.219ZM686.531 228.844V231.219H667.25V221.656H670.188V228.844H686.531ZM663.844 237.125V234.75H689.469V237.125H663.844ZM667.031 248V239.781H670V245.562H686.719V248H667.031ZM723.688 220.438V248.875H719.844V234.406H717.25V247.625H713.531V221.188H717.25V231.219H719.844V220.438H723.688ZM698.812 240.281C704.609 236.875 707.109 232.703 707.641 227.125H700.25V223.938H711.531C711.516 231.875 709.141 238.375 701.125 243.031L698.812 240.281ZM731.625 221.719V225.094H737.438V221.719H741.438V234.125H727.656V221.719H731.625ZM730.5 239.062V235.969H749.375V243.688H734.469V245.531H750.188V248.688H730.562V240.844H745.406V239.062H730.5ZM731.625 231H737.438V228.094H731.625V231ZM745.375 234.906V220.438H749.375V225.969H753.219V229.188H749.375V234.906H745.375ZM764.969 228.188C764.953 232.516 767.266 237.516 771.938 239.688L769.719 242.812C766.547 241.359 764.297 238.453 763.016 235.047C761.75 238.797 759.406 241.984 756.125 243.531L753.812 240.375C758.547 238.172 760.938 232.891 760.969 228.188V226.438H754.938V223.188H770.688V226.438H764.969V228.188ZM772.906 248.875V220.438H776.906V231.281H781.094V234.625H776.906V248.875H772.906ZM813.312 220.438V248.938H809.281V220.438H813.312ZM790.344 232.562C790.328 226.359 793.5 222.438 797.875 222.438C802.156 222.438 805.344 226.359 805.344 232.562C805.344 238.812 802.156 242.719 797.875 242.719C793.5 242.719 790.328 238.812 790.344 232.562ZM794.188 232.562C794.172 236.797 795.656 239.109 797.875 239.094C800.031 239.109 801.484 236.797 801.5 232.562C801.484 228.344 800.031 226.031 797.875 226.031C795.656 226.031 794.172 228.344 794.188 232.562ZM830.812 222.094V230.969H822.219V234C826.438 234 828.969 233.859 831.844 233.312L832.219 236.5C828.891 237.094 825.906 237.172 820.406 237.188H818.281V228H826.812V225.219H818.219V222.094H830.812ZM821.531 242.438V239.25H841.125V248.875H837.156V242.438H821.531ZM832.438 233.594V230.438H837.156V227.562H832.438V224.406H837.156V220.469H841.125V237.969H837.156V233.594H832.438ZM855.562 226.875C855.578 232.219 857.734 237.422 862.469 239.469L860.031 242.656C856.875 241.125 854.75 238.281 853.562 234.766C852.344 238.5 850.156 241.562 846.906 243.156L844.406 239.906C849.281 237.703 851.5 232.219 851.531 226.875V222.625H855.562V226.875ZM859.281 232.594V229.375H864.875V220.438H868.812V248.938H864.875V232.594H859.281Z" fill="#F3F5FA"/>
</svg>
