<svg width="726" height="190" viewBox="0 0 726 190" fill="none" xmlns="http://www.w3.org/2000/svg">
<path d="M49.5 49.5652H66.4463L99.3001 100.411L132.154 49.5652H149.1V140.435H127.819V90.5906L105.724 125.489H92.8648L70.7816 90.5906V140.435H49.5V49.5652Z" fill="white"/>
<path d="M224.269 122.819H187.328L180.667 140.435H158.685L195.626 49.5652H217.721L254.661 140.435H230.93L224.269 122.819ZM217.721 105.202L205.798 73.5343L193.876 105.202H217.721Z" fill="white"/>
<path d="M298.5 105.762L285.528 120.03V140.435H264.247V49.5652H285.528V92.378L323.632 49.5652H349.7L312.297 90.709L351.699 140.435H325.167L298.512 105.762H298.5Z" fill="white"/>
<path d="M360.81 49.5652H431.654V67.1813H382.091V85.6912H427.567V103.307H382.091V122.819H432.716V140.435H360.821V49.5652H360.81Z" fill="white"/>
<path d="M485.722 72.8667C485.722 79.2197 480.811 84.0114 474.15 84.0114C467.489 84.0114 462.465 79.2197 462.465 72.8667C462.465 66.5137 467.376 61.722 474.15 61.722C480.924 61.722 485.722 66.5137 485.722 72.8667ZM485.722 117.133C485.722 123.486 480.811 128.278 474.15 128.278C467.489 128.278 462.465 123.486 462.465 117.133C462.465 110.78 467.376 105.989 474.15 105.989C480.924 105.989 485.722 110.78 485.722 117.133Z" fill="white"/>
<path d="M570.114 140.435L551.644 111.782H534.698V140.435H513.416V49.5652H551.757C575.951 49.5652 590.098 61.8297 590.098 80.6734C590.098 93.1641 583.9 102.747 572.677 107.765L594.772 140.435H570.103H570.114ZM534.698 93.8317H550.831C562.053 93.8317 568.839 89.2553 568.839 80.6734C568.839 72.0914 562.053 67.5151 550.831 67.5151H534.698V93.8317Z" fill="white"/>
<path d="M604.605 49.5652H675.45V67.1813H625.887V85.6912H671.363V103.307H625.887V122.819H676.5V140.435H604.605V49.5652Z" fill="white"/>
</svg>
