<svg width="40" height="40" viewBox="0 0 40 40" fill="none" xmlns="http://www.w3.org/2000/svg">
<path fill-rule="evenodd" clip-rule="evenodd" d="M2.5 13C2.5 8.85786 5.85786 5.5 10 5.5H30C34.1421 5.5 37.5 8.85786 37.5 13V30C37.5 34.1421 34.1421 37.5 30 37.5H10C5.85786 37.5 2.5 34.1421 2.5 30V13ZM10 8.5C7.51472 8.5 5.5 10.5147 5.5 13V30C5.5 32.4853 7.51472 34.5 10 34.5H30C32.4853 34.5 34.5 32.4853 34.5 30V13C34.5 10.5147 32.4853 8.5 30 8.5H10Z" fill="#8D9299"/>
<path fill-rule="evenodd" clip-rule="evenodd" d="M14 2.5C14.8284 2.5 15.5 3.17157 15.5 4V10C15.5 10.8284 14.8284 11.5 14 11.5C13.1716 11.5 12.5 10.8284 12.5 10V4C12.5 3.17157 13.1716 2.5 14 2.5Z" fill="#8D9299"/>
<path fill-rule="evenodd" clip-rule="evenodd" d="M26 2.5C26.8284 2.5 27.5 3.17157 27.5 4V10C27.5 10.8284 26.8284 11.5 26 11.5C25.1716 11.5 24.5 10.8284 24.5 10V4C24.5 3.17157 25.1716 2.5 26 2.5Z" fill="#8D9299"/>
<path fill-rule="evenodd" clip-rule="evenodd" d="M2.5 26C2.5 25.1716 3.17157 24.5 4 24.5H36C36.8284 24.5 37.5 25.1716 37.5 26C37.5 26.8284 36.8284 27.5 36 27.5H4C3.17157 27.5 2.5 26.8284 2.5 26Z" fill="#8D9299"/>
<path d="M16 18C16 19.1046 15.1046 20 14 20C12.8954 20 12 19.1046 12 18C12 16.8954 12.8954 16 14 16C15.1046 16 16 16.8954 16 18Z" fill="#8D9299"/>
<path d="M28 18C28 19.1046 27.1046 20 26 20C24.8954 20 24 19.1046 24 18C24 16.8954 24.8954 16 26 16C27.1046 16 28 16.8954 28 18Z" fill="#8D9299"/>
<path d="M22 18C22 19.1046 21.1046 20 20 20C18.8954 20 18 19.1046 18 18C18 16.8954 18.8954 16 20 16C21.1046 16 22 16.8954 22 18Z" fill="#8D9299"/>
</svg>
